# xmcd
#
# Track frame offsets: 
#        150
#        13656
#        25835
#        43213
#        58834
#        72788
#        87127
#        97677
#        110911
#        122220
#        136747
#        150651
#        166631
#        182087
#        196671
#        214960
#        229697
#        240182
#        252075
#        272027
#        287555
#        302753
#
# Disc length: 4213 seconds
#
# Revision: 0
# Processed by: cddbd v1.5.2PL0 Copyright (c) Steve Scherf et al.
# Submitted via: ExactAudioCopy v0.95b4
#
DISCID=23107316
DTITLE=Piaf, Edith - La Vie en Rose
DYEAR=2007
DGENRE=Historic
TTITLE0=Bal Dans Ma Rue
TTITLE1=Paris
TTITLE2=Un Homme Comme Les Autres
TTITLE3=Monsieur Lenoble
TTITLE4=Notre Dame de Paris
TTITLE5=Il Y Avait
TTITLE6=La Valse de l'Amour
TTITLE7=Telegramme
TTITLE8=Dans Les Prisons de Nantes
TTITLE9=Plus Bleu Que Tes Yeux
TTITLE10=Le Chevalier de Paris
TTITLE11=Ding Din Don
TTITLE12=L'Orgue des Amoureux
TTITLE13=Le Prisonnier de la Tour
TTITLE14=Le Disque Use
TTITLE15=Il Pleut
TTITLE16=Si, Si, Si, Si
TTITLE17=Mon Ami M'a Donne
TTITLE18=Mariage
TTITLE19=Chason de Catherine
TTITLE20=Pour Moi Tout Seule
TTITLE21=Au Bal de la Chance
EXTD=
EXTT0=
EXTT1=
EXTT2=
EXTT3=
EXTT4=
EXTT5=
EXTT6=
EXTT7=
EXTT8=
EXTT9=
EXTT10=
EXTT11=
EXTT12=
EXTT13=
EXTT14=
EXTT15=
EXTT16=
EXTT17=
EXTT18=
EXTT19=
EXTT20=
EXTT21=
PLAYORDER=
